<?xml version="1.0" encoding="UTF-8"?>
<svg version="1.1" xmlns="http://www.w3.org/2000/svg" width="900" height="600">
<path d="M0 0 C297 0 594 0 900 0 C900 198 900 396 900 600 C603 600 306 600 0 600 C0 402 0 204 0 0 Z " fill="#000000" transform="translate(0,0)"/>
<path d="M0 0 C19.47 0 38.94 0 59 0 C59 32.67 59 65.34 59 99 C39.53 99 20.06 99 0 99 C0 66.33 0 33.66 0 0 Z " fill="#FB0101" transform="translate(390,244)"/>
<path d="M0 0 C4.29 0 8.58 0 13 0 C15.65146558 6.72248503 17.69798107 13.55635614 19.6875 20.5 C20.780625 24.295 21.87375 28.09 23 32 C23.33 21.44 23.66 10.88 24 0 C28.29 0 32.58 0 37 0 C37 23.1 37 46.2 37 70 C32.38 70 27.76 70 23 70 C18.545 55.645 18.545 55.645 14 41 C13.67 50.57 13.34 60.14 13 70 C8.71 70 4.42 70 0 70 C0 46.9 0 23.8 0 0 Z " fill="#FEF2F2" transform="translate(401,258)"/>
<path d="M0 0 C22 0 22 0 27 3 C31.23823946 8.49470099 30.47775554 14.288016 30.4375 20.9375 C30.4674707 22.68836914 30.4674707 22.68836914 30.49804688 24.47460938 C30.49429097 31.06621591 30.25077942 34.91701425 26 40 C24.74967485 43.32903498 25.15940466 45.65169691 25.99609375 49.0625 C26.33930664 50.50496094 26.33930664 50.50496094 26.68945312 51.9765625 C26.93630859 52.97429687 27.18316406 53.97203125 27.4375 55 C27.91927539 56.97821832 28.39729269 58.95735662 28.87109375 60.9375 C29.08693115 61.81277344 29.30276855 62.68804687 29.52514648 63.58984375 C30 66 30 66 30 70 C27.03 70 24.06 70 21 70 C20.15808127 66.27271829 19.3279832 62.54289997 18.5 58.8125 C18.26152344 57.75740234 18.02304687 56.70230469 17.77734375 55.61523438 C17.55175781 54.59365234 17.32617188 53.57207031 17.09375 52.51953125 C16.88427734 51.58214111 16.67480469 50.64475098 16.45898438 49.67895508 C16.01032912 47.06028801 15.91592041 44.65060917 16 42 C14.02 42 12.04 42 10 42 C10 51.24 10 60.48 10 70 C6.7 70 3.4 70 0 70 C0 46.9 0 23.8 0 0 Z " fill="#F3F3F3" transform="translate(467,258)"/>
<path d="M0 0 C19.47 0 38.94 0 59 0 C59 32.67 59 65.34 59 99 C39.53 99 20.06 99 0 99 C0 66.33 0 33.66 0 0 Z M1 1 C1 32.68 1 64.36 1 97 C19.48 97 37.96 97 57 97 C57 65.32 57 33.64 57 1 C38.52 1 20.04 1 1 1 Z " fill="#CB1212" transform="translate(390,244)"/>
<path d="M0 0 C2.97 0 5.94 0 9 0 C11.41816166 2.41816166 10.18547019 8.68777819 10.1875 11.9375 C10.19974609 12.96552734 10.21199219 13.99355469 10.22460938 15.05273438 C10.22750977 16.52516602 10.22750977 16.52516602 10.23046875 18.02734375 C10.23457764 18.93218506 10.23868652 19.83702637 10.24291992 20.76928711 C10 23 10 23 8 25 C5.36 25 2.72 25 0 25 C0 16.75 0 8.5 0 0 Z " fill="#010101" transform="translate(477,267)"/>
<path d="M0 0 C4.95 0 9.9 0 15 0 C15 23.43 15 46.86 15 71 C14.67 71 14.34 71 14 71 C14 47.9 14 24.8 14 1 C9.71 1 5.42 1 1 1 C1 12.55 1 24.1 1 36 C-1.22606025 32.66090963 -2.11033078 29.90085737 -3 26 C-2.69754818 24.65932413 -2.36118704 23.32605913 -2 22 C-1.8681073 20.35287096 -1.77743169 18.70214015 -1.71875 17.05078125 C-1.68136719 16.12072266 -1.64398438 15.19066406 -1.60546875 14.23242188 C-1.53473351 12.27410377 -1.46442603 10.31577016 -1.39453125 8.35742188 C-1.35714844 7.43123047 -1.31976563 6.50503906 -1.28125 5.55078125 C-1.25095703 4.70169189 -1.22066406 3.85260254 -1.18945312 2.9777832 C-1 1 -1 1 0 0 Z " fill="#DB0E0E" transform="translate(424,257)"/>
<path d="M0 0 C12.54 0 25.08 0 38 0 C38 1.32 38 2.64 38 4 C25.46 4 12.92 4 0 4 C0 2.68 0 1.36 0 0 Z " fill="#FEFEFE" transform="translate(463,339)"/>
<path d="M0 0 C12.54 0 25.08 0 38 0 C38 1.32 38 2.64 38 4 C25.46 4 12.92 4 0 4 C0 2.68 0 1.36 0 0 Z " fill="#FFFFFF" transform="translate(463,244)"/>
<path d="M0 0 C0.66 0 1.32 0 2 0 C2 11.55 2 23.1 2 35 C-0.22606025 31.66090963 -1.11033078 28.90085737 -2 25 C-1.69868436 23.65906832 -1.36213161 22.32580149 -1 21 C-0.85701869 19.3413488 -0.75458775 17.6789131 -0.68359375 16.015625 C-0.64169922 15.08105469 -0.59980469 14.14648438 -0.55664062 13.18359375 C-0.51732422 12.21550781 -0.47800781 11.24742187 -0.4375 10.25 C-0.39431641 9.26644531 -0.35113281 8.28289062 -0.30664062 7.26953125 C-0.20077948 4.84648725 -0.09869829 2.4233446 0 0 Z " fill="#DB3E3E" transform="translate(423,258)"/>
<path d="M0 0 C2.45823172 3.68734758 3.01242616 6.69699971 4 11 C3.34 10.67 2.68 10.34 2 10 C1.67 17.26 1.34 24.52 1 32 C0.67 32 0.34 32 0 32 C0 21.44 0 10.88 0 0 Z " fill="#D32322" transform="translate(414,296)"/>
<path d="M0 0 C1.485 0.99 1.485 0.99 3 2 C3.40843923 4.71203652 3.13336867 7.2437142 3 10 C0.70366176 6.55549263 0.45983515 4.06187717 0 0 Z " fill="#D51717" transform="translate(421,279)"/>
</svg>
